<?xml version="1.0" encoding="UTF-8"?>
<svg width="512" height="512" viewBox="0 0 512 512" fill="none" xmlns="http://www.w3.org/2000/svg">
  <!-- Definitions -->
  <defs>
    <!-- Main gradient -->
    <linearGradient id="mainGradient" x1="15%" y1="15%" x2="85%" y2="85%">
      <stop offset="0%" style="stop-color:#593A55;stop-opacity:1"/>
      <stop offset="60%" style="stop-color:#8A5B85;stop-opacity:1"/>
      <stop offset="100%" style="stop-color:#B088AE;stop-opacity:1"/>
    </linearGradient>
    
    <!-- Inner glow effect -->
    <filter id="innerGlow" x="-50%" y="-50%" width="200%" height="200%">
      <feGaussianBlur in="SourceAlpha" stdDeviation="4" result="blur"/>
      <feOffset dx="0" dy="0"/>
      <feComposite in2="SourceAlpha" operator="arithmetic" k2="-1" k3="1"/>
      <feFlood flood-color="white" flood-opacity="0.3"/>
      <feComposite operator="in"/>
      <feMerge>
        <feMergeNode/>
        <feMergeNode in="SourceGraphic"/>
      </feMerge>
    </filter>
  </defs>
  
  <!-- Base shape - hexagon for focus/structure -->
  <path d="M256 72L409 165V351L256 444L103 351V165L256 72Z" 
        fill="url(#mainGradient)" filter="url(#innerGlow)"/>
  
  <!-- Central focus point and forward momentum -->
  <g fill="white" opacity="0.95">
    <!-- Focus rings -->
    <circle cx="256" cy="256" r="8" fill="white"/>
    <circle cx="256" cy="256" r="32" stroke="white" stroke-width="4" fill="none"/>
    <circle cx="256" cy="256" r="56" stroke="white" stroke-width="3" fill="none" opacity="0.7"/>
    
    <!-- Forward momentum arrows -->
    <g opacity="0.9">
      <!-- Right arrow -->
      <path d="M280 256H344" stroke="white" stroke-width="4" stroke-linecap="round"/>
      <path d="M328 240L344 256L328 272" stroke="white" stroke-width="4" stroke-linecap="round" stroke-linejoin="round"/>
      
      <!-- Left arrow (faded) -->
      <path d="M232 256H168" stroke="white" stroke-width="4" stroke-linecap="round" opacity="0.5"/>
      <path d="M184 240L168 256L184 272" stroke="white" stroke-width="4" stroke-linecap="round" stroke-linejoin="round" opacity="0.5"/>
    </g>
  </g>
  
  <!-- Subtle corner accents -->
  <g stroke="white" stroke-width="3" opacity="0.6">
    <path d="M103 165L123 175" stroke-linecap="round"/>
    <path d="M409 165L389 175" stroke-linecap="round"/>
    <path d="M103 351L123 341" stroke-linecap="round"/>
    <path d="M409 351L389 341" stroke-linecap="round"/>
  </g>
</svg>
